<?xml version="1.0" encoding="UTF-8" standalone="no"?>
<svg
   xmlns:dc="http://purl.org/dc/elements/1.1/"
   xmlns:cc="http://creativecommons.org/ns#"
   xmlns:rdf="http://www.w3.org/1999/02/22-rdf-syntax-ns#"
   xmlns:svg="http://www.w3.org/2000/svg"
   xmlns="http://www.w3.org/2000/svg"
   xmlns:xlink="http://www.w3.org/1999/xlink"
   xmlns:sodipodi="http://sodipodi.sourceforge.net/DTD/sodipodi-0.dtd"
   xmlns:inkscape="http://www.inkscape.org/namespaces/inkscape"
   width="70"
   height="70"
   id="svg2"
   version="1.1"
   inkscape:version="0.48.2 r9819"
   sodipodi:docname="1328594274.svg"
   inkscape:export-filename="/home/lcsantos/workspace/fingerBall/core/src/main/java/beothorn/labs/resources/images/basketBall.png"
   inkscape:export-xdpi="90"
   inkscape:export-ydpi="90">
  <sodipodi:namedview
     pagecolor="#ffffff"
     bordercolor="#666666"
     borderopacity="1"
     objecttolerance="10"
     gridtolerance="10"
     guidetolerance="10"
     inkscape:pageopacity="0"
     inkscape:pageshadow="2"
     inkscape:window-width="1680"
     inkscape:window-height="1026"
     id="namedview23"
     showgrid="false"
     inkscape:zoom="5.7998462"
     inkscape:cx="46.633475"
     inkscape:cy="28.385593"
     inkscape:window-x="0"
     inkscape:window-y="24"
     inkscape:window-maximized="1"
     inkscape:current-layer="svg2" />
  <defs
     id="defs4">
    <linearGradient
       id="imagebot_13">
      <stop
         stop-color="#ff9955"
         offset="0"
         id="imagebot_31" />
      <stop
         stop-color="#ff6600"
         id="imagebot_30"
         offset="0.5" />
      <stop
         stop-color="#a14d2b"
         offset="1"
         id="imagebot_29" />
    </linearGradient>
    <linearGradient
       id="imagebot_12">
      <stop
         stop-color="#0a0400"
         stop-opacity="0.74902"
         offset="0"
         id="imagebot_27" />
      <stop
         stop-color="#4d4d4d"
         offset="0.5"
         id="imagebot_26" />
      <stop
         stop-color="#2b1100"
         id="imagebot_25"
         offset="1" />
    </linearGradient>
    <radialGradient
       r="108.55419"
       fy="-104.87835"
       fx="76.246407"
       cy="-104.87835"
       cx="76.246407"
       gradientTransform="matrix(0.3642593,1.300038,-1.2734026,0.35679626,-85.079426,-166.58137)"
       gradientUnits="userSpaceOnUse"
       id="imagebot_8"
       xlink:href="#imagebot_13" />
    <linearGradient
       y2="43.738194"
       x2="248.11218"
       y1="228.81143"
       x1="41.29063"
       id="imagebot_6"
       xlink:href="#imagebot_12"
       gradientTransform="scale(1.0307057,0.97020902)"
       gradientUnits="userSpaceOnUse" />
  </defs>
  <metadata
     id="imagebot_11">
    <rdf:RDF>
      <cc:Work
         rdf:about="">
        <dc:format>image/svg+xml</dc:format>
        <dc:type
           rdf:resource="http://purl.org/dc/dcmitype/StillImage" />
        <dc:title></dc:title>
      </cc:Work>
    </rdf:RDF>
  </metadata>
  <g
     id="imagebot_2"
     label="Ebene 1"
     transform="matrix(0.23068435,0,0,0.23068435,0.68956948,0.58790605)">
    <g
       label="Ebene 1"
       id="imagebot_4"
       transform="matrix(1.03635,0,0,1.03635,-24.1073,-20.2166)">
      <path
         transform="matrix(1.3333334,0,0,1.3333334,87.015662,274.36021)"
         d="m 169.29285,-82.58597 c 0,59.95283 -48.60138,108.55419 -108.55419,108.55419 -59.95283,0 -108.5542,-48.60136 -108.5542,-108.55419 0,-59.95282 48.60137,-108.5542 108.5542,-108.5542 59.95282,0 108.55419,48.60138 108.55419,108.5542 z"
         id="imagebot_7"
         inkscape:connector-curvature="0"
         style="fill:url(#imagebot_8)" />
      <path
         id="imagebot_5"
         d="m 135.59212,23.1438 c -2.21987,0.50778 -4.41408,1.07895 -6.59375,1.6875 -3.44132,2.26026 -6.92739,4.81749 -9.78125,7.3125 -10.40351,9.09537 -17.5982,17.53726 -26.5,31.125 -8.42137,13.29604 -14.45509,27.37099 -19.65625,40 -2.0261,4.65916 -8.87374,30.08569 -10.625,39.5 -0.66503,3.575 -1.3342,6.644 -1.5,6.8125 -0.95519,0.97082 -10.85099,-3.45625 -14.71875,-6.59375 -5.84695,-4.74301 -8.1421,-8.19673 -10.84375,-16.21875 -1.88468,-5.59619 -2.08395,-7.83158 -1.59375,-16.71875 -1.55194,3.84008 -2.96378,7.75459 -4.1875,11.75 1.4e-4,0.0106 -1.5e-4,0.0206 0,0.0312 0.01435,1.01207 0.06845,1.97271 0.15625,2.84375 1.95589,15.88521 13.94442,26.69318 30.90625,33.34375 0.24876,0.6875 0.0757,4.84999 -0.375,9.25 -0.45068,4.4 -0.5735,12.48152 -0.28125,17.9375 0.43297,8.08306 0.28394,9.72206 -0.78125,8.875 -11.89591,-3.01246 -25.11602,-6.21808 -34.75,-11.09375 0.42174,3.26139 0.95863,6.49794 1.59375,9.6875 1.61115,0.71576 3.4826,1.39032 5.6875,2.0625 9.21109,3.09893 20.30203,5.8077 28.28125,8.1875 0.14501,11.1288 2.2962,17.10369 3.65625,27.75 l 0.40625,3.375 -9.15625,-0.53125 c -5.05091,-0.30134 -9.84755,-0.14837 -10.625,0.34375 -1.19679,0.75762 -1.17619,0.8976 0.09375,0.9375 1.21664,0.0382 1.16942,0.2975 -0.25,1.375 -0.39514,0.29996 -0.76873,0.74651 -1.0625,1.25 0.71784,1.22272 1.46637,2.42557 2.21875,3.625 0.98894,-0.21548 1.18885,0.0505 0.8125,1.03125 -0.02793,0.0728 -0.03957,0.12233 -0.0625,0.1875 0.17527,0.27339 0.35419,0.54036 0.53125,0.8125 0.47169,-0.11351 1.22603,-0.40799 2.34375,-0.875 1.87395,-0.78299 6.51156,-1.4375 10.3125,-1.4375 6.78992,0 6.95329,0.0699 8.21875,3.125 2.62197,7.4636 6.04444,14.8994 9.28125,21.87499 2.41787,5.11084 7.35683,12.70202 13.125,20.3125 2.32178,1.49203 4.68365,2.92084 7.09375,4.28125 -8.15377,-9.24124 -15.25524,-19.41593 -16.15625,-24.21875 -3.55284,-6.49118 -4.02896,-14.79946 -5.9375,-21.12499 -0.40274,-1.32359 -0.26424,-2.25 0.34375,-2.25 0.56843,0 6.14178,1.89975 12.375,4.1875 13.62786,4.36376 28.12117,10.18264 38.9375,16.65624 21.98045,13.19763 42.78496,22.15405 64.375,27.71875 8.26368,2.12994 12.7781,2.63901 26,2.90625 11.21766,0.22674 13.16195,0.13711 6.5,-0.3125 -7.58238,-0.51169 -10.14084,-1.11081 -12.65625,-2.90625 -1.73377,-1.23749 -4.10134,-2.25 -5.28125,-2.25 -18.04795,-4.82181 -32.70124,-9.79376 -50.0625,-18.40625 -4.67501,-2.34134 -14.575,-7.35257 -22,-11.15625 -10.1993,-6.34519 -23.1334,-10.22853 -33.34375,-14.87499 -1.73312,-0.79654 -8.81862,-3.27968 -15.75,-5.53125 l -12.59375,-4.09375 -1.6875,-8.21875 c -1.80429,-8.80235 -3.70803,-22.94822 -3.15625,-23.5 0.18469,-0.1847 3.87023,0.17208 8.1875,0.78125 4.31728,0.60916 19.54375,1.26331 33.84375,1.46875 21.93548,-0.66325 47.92259,0.2407 71.1875,-1.46875 4.58822,-0.01 34.09121,-2.70227 54.3125,-4.96875 28.86705,-3.23555 58.45811,-10.79184 72.50001,-18.5 2.02664,-1.11252 3.86023,-2.29977 5.28125,-3.34375 0.17478,-2.01013 0.31446,-4.02968 0.40625,-6.0625 -0.93789,-0.0975 -2.88623,0.66986 -6.8125,2.40625 -9.92758,4.39044 -32.73218,10.40798 -55.21876,14.5625 -12.57936,2.32411 -37.80406,5.35834 -62.15625,7.46875 -30.36902,2.63184 -115.03315,1.57578 -121,-1.5 -1.78062,-0.91787 -2.56388,-17.7337 -1.28125,-27.5625 l 0.78125,-6 7.96875,-0.78125 c 10.30124,-1.02026 23.71894,-5.52993 35.03124,-11.78125 41.76592,-30.99346 85.79766,-61.76667 132.56251,-78.99999 10.94021,-3.7998 13.82951,-4.38397 23.81248,-4.875 l 5.6875,-0.28125 c -1.92181,-1.98371 -3.9057,-3.90979 -5.9375,-5.78125 -0.79474,-0.0071 -1.66513,0 -2.65625,0 -11.67335,0 -26.31576,3.60601 -40.46873,9.96875 -29.50379,12.98552 -56.6991,30.23175 -81.84375,48.53124 -9.82137,7.16031 -19.94637,14.51921 -22.50001,16.34375 -6.3053,4.50505 -18.74591,10.73792 -24.18749,12.125 -2.45457,0.62567 -5.36875,1.54242 -6.46875,2.0625 -3.26716,1.5447 -13.66809,3.96875 -17.03125,3.96875 l -3.125,0 0.8125,-6.25 c 0.99637,-7.55394 3.9224,-24.33999 6.46875,-31.75 10.45092,-30.41271 35.55984,-73.81166 60.5625,-89.62499 l 0,4e-5 z"
         inkscape:connector-curvature="0"
         style="fill:url(#imagebot_6)" />
    </g>
    <title
       id="title21">Ebene 1</title>
  </g>
</svg>
