<?xml version="1.0" encoding="UTF-8" standalone="no"?>
<!-- Created with Inkscape (http://www.inkscape.org/) -->

<svg
   xmlns:dc="http://purl.org/dc/elements/1.1/"
   xmlns:cc="http://creativecommons.org/ns#"
   xmlns:rdf="http://www.w3.org/1999/02/22-rdf-syntax-ns#"
   xmlns:svg="http://www.w3.org/2000/svg"
   xmlns="http://www.w3.org/2000/svg"
   xmlns:xlink="http://www.w3.org/1999/xlink"
   xmlns:sodipodi="http://sodipodi.sourceforge.net/DTD/sodipodi-0.dtd"
   xmlns:inkscape="http://www.inkscape.org/namespaces/inkscape"
   width="70"
   height="70"
   id="svg2385"
   sodipodi:version="0.32"
   inkscape:version="0.48.2 r9819"
   version="1.0"
   sodipodi:docname="flomar_Football_(soccer).svg"
   inkscape:output_extension="org.inkscape.output.svg.inkscape"
   style="enable-background:new"
   inkscape:export-filename="/home/lcsantos/workspace/fingerBall/core/src/main/java/beothorn/labs/resources/images/soccerball.png"
   inkscape:export-xdpi="89.970001"
   inkscape:export-ydpi="89.970001">
  <defs
     id="defs2387">
    <linearGradient
       id="linearGradient3423">
      <stop
         style="stop-color:#6a6a6a;stop-opacity:1;"
         offset="0"
         id="stop3425" />
      <stop
         style="stop-color:#000000;stop-opacity:1;"
         offset="1"
         id="stop3427" />
    </linearGradient>
    <linearGradient
       id="linearGradient3413">
      <stop
         style="stop-color:#ffffff;stop-opacity:1;"
         offset="0"
         id="stop3415" />
      <stop
         id="stop3512"
         offset="0.47019866"
         style="stop-color:#ffffff;stop-opacity:1;" />
      <stop
         style="stop-color:#d6d6d6;stop-opacity:1;"
         offset="1"
         id="stop3417" />
    </linearGradient>
    <linearGradient
       inkscape:collect="always"
       id="linearGradient3520">
      <stop
         style="stop-color:#000000;stop-opacity:1;"
         offset="0"
         id="stop3522" />
      <stop
         style="stop-color:#000000;stop-opacity:0;"
         offset="1"
         id="stop3524" />
    </linearGradient>
    <linearGradient
       inkscape:collect="always"
       id="linearGradient3528">
      <stop
         style="stop-color:#000000;stop-opacity:1;"
         offset="0"
         id="stop3530" />
      <stop
         style="stop-color:#000000;stop-opacity:0;"
         offset="1"
         id="stop3532" />
    </linearGradient>
    <linearGradient
       id="linearGradient3536">
      <stop
         style="stop-color:#333333;stop-opacity:1;"
         offset="0"
         id="stop3538" />
      <stop
         style="stop-color:#000000;stop-opacity:0;"
         offset="1"
         id="stop3540" />
    </linearGradient>
    <linearGradient
       inkscape:collect="always"
       xlink:href="#linearGradient3528"
       id="linearGradient3239"
       gradientUnits="userSpaceOnUse"
       gradientTransform="matrix(0.14841471,0,0,0.14841471,228.08575,644.76979)"
       x1="237.34625"
       y1="1070.5031"
       x2="125.4752"
       y2="1026.626" />
    <linearGradient
       inkscape:collect="always"
       xlink:href="#linearGradient3520"
       id="linearGradient3242"
       gradientUnits="userSpaceOnUse"
       gradientTransform="matrix(0.1483078,0,0,0.1483078,229.01879,645.09658)"
       x1="350.87286"
       y1="1121.9573"
       x2="468.47543"
       y2="1143.9006" />
    <radialGradient
       inkscape:collect="always"
       xlink:href="#linearGradient3413"
       id="radialGradient3245"
       gradientUnits="userSpaceOnUse"
       gradientTransform="matrix(0.15225074,0,0,0.1522613,227.14854,641.66539)"
       cx="311.42657"
       cy="1062.9181"
       fx="311.42657"
       fy="1062.9181"
       r="225.0625" />
    <radialGradient
       inkscape:collect="always"
       xlink:href="#linearGradient3423"
       id="radialGradient3248"
       gradientUnits="userSpaceOnUse"
       gradientTransform="matrix(0.12763571,0,0,0.12763571,233.85381,776.11003)"
       cx="317.61365"
       cy="207.49344"
       fx="317.61365"
       fy="207.49344"
       r="245.83293" />
    <linearGradient
       inkscape:collect="always"
       xlink:href="#linearGradient3536"
       id="linearGradient3250"
       gradientUnits="userSpaceOnUse"
       gradientTransform="matrix(0.13372931,0,0,0.13372931,234.99469,653.89923)"
       x1="299.17374"
       y1="952.46429"
       x2="320.48227"
       y2="882.12744" />
  </defs>
  <sodipodi:namedview
     id="base"
     pagecolor="#ffffff"
     bordercolor="#666666"
     borderopacity="1.0"
     inkscape:pageopacity="0.0"
     inkscape:pageshadow="2"
     inkscape:zoom="6.2731872"
     inkscape:cx="11.388564"
     inkscape:cy="53.04757"
     inkscape:document-units="px"
     inkscape:current-layer="layer1"
     showgrid="false"
     inkscape:window-width="1680"
     inkscape:window-height="1026"
     inkscape:window-x="0"
     inkscape:window-y="24"
     height="449.16989px"
     width="450.17px"
     inkscape:window-maximized="1" />
  <metadata
     id="metadata2390">
    <rdf:RDF>
      <cc:Work
         rdf:about="">
        <dc:format>image/svg+xml</dc:format>
        <dc:type
           rdf:resource="http://purl.org/dc/dcmitype/StillImage" />
        <dc:title></dc:title>
      </cc:Work>
    </rdf:RDF>
  </metadata>
  <g
     inkscape:label="Ebene 1"
     inkscape:groupmode="layer"
     id="layer1"
     transform="translate(-236.97296,-774.74094)">
    <path
       style="fill:url(#radialGradient3248);fill-opacity:1;fill-rule:evenodd;stroke:none;stroke-width:5.57342529;marker:none;visibility:visible;display:inline;overflow:visible;enable-background:accumulate"
       d="m 306.31297,809.78983 c 0,18.91668 -15.35266,34.26934 -34.26934,34.26934 -18.91669,0 -34.26935,-15.35266 -34.26935,-34.26934 0,-18.91669 15.35266,-34.26935 34.26935,-34.26935 18.91668,0 34.26934,15.35266 34.26934,34.26935 z"
       id="path3382"
       inkscape:connector-curvature="0" />
    <path
       style="fill:url(#radialGradient3245);fill-opacity:1;fill-rule:evenodd;stroke:none;stroke-width:5.10303545;marker:none;visibility:visible;display:inline;overflow:visible;enable-background:accumulate"
       d="m 272.04219,775.52103 c -7.47978,0 -14.39933,2.40328 -20.03524,6.47542 -2.45364,2.9673 -4.17262,5.93778 -4.17262,5.93778 l -3.13067,1.19897 c -4.34809,5.74529 -6.9274,12.90297 -6.9274,20.65852 0,0.72443 0.0223,1.44199 0.0666,2.15529 0.77889,1.39154 1.36074,2.27901 1.36074,2.27901 l -0.39966,3.91094 c 2.23832,8.93399 7.98636,16.48002 15.69134,21.08673 0.55052,0.356 1.01037,0.57151 1.51554,0.85729 -0.26803,-0.25321 -0.3506,-0.32094 -0.52591,-0.48142 -2.0169,-2.08611 -3.71586,-4.52471 -3.71586,-4.52471 l 4.87678,-4.48664 c 0,0 3.13547,2.3698 6.65621,3.59693 3.52074,1.22713 7.42698,1.31315 7.42698,1.31315 l 2.41699,6.20423 c 0,0 -2.13576,1.09535 -5.16702,1.63194 -0.5428,0.0961 -1.11646,0.17423 -1.68904,0.23789 1.87087,0.31688 3.79155,0.48529 5.75224,0.48529 7.92352,0 15.22354,-2.69239 21.02963,-7.21286 1.81633,-2.43377 3.00694,-4.52471 3.00694,-4.52471 l 2.64537,-1.03721 c 4.6943,-5.8195 7.52667,-13.2031 7.58399,-21.24374 -0.9324,-2.7646 -1.95071,-4.38671 -1.95072,-4.38671 0,0 0.25992,-2.52469 -0.10516,-5.30558 -0.0573,-0.43633 0.23591,-0.28105 0.5888,-0.51798 -0.10469,-0.39507 -0.48492,-1.56911 -0.67675,-2.12974 -0.75521,-2.20701 -1.49805,-3.25995 -1.98598,-4.23628 0.95053,0.53099 -0.004,-0.002 -0.005,-0.005 -5.80538,-10.68234 -17.12616,-17.93706 -30.13138,-17.93706 z m 4.14408,1.30364 c 2.84767,0.0389 5.81883,0.96109 5.81883,0.96109 0,-10e-6 3.37587,1.29726 5.78553,3.13065 2.40965,1.83339 3.85384,4.20117 3.85384,4.20117 l -6.12809,4.23448 c 0,-1e-5 -3.29871,-2.25978 -6.74661,-3.47798 -3.44791,-1.2182 -7.04636,-1.39405 -7.04636,-1.39405 l -1.7366,-6.32316 c 0,0 2.62835,-1.2348 5.63328,-1.32743 0.1878,-0.006 0.37633,-0.007 0.56618,-0.005 z m -20.02573,16.92838 c 2.10417,0.01 3.85384,0.26169 3.85384,0.26169 l 3.16873,13.46467 -10.17227,9.68695 c 0,0 -3.17642,-2.01529 -5.46675,-3.98706 -2.29032,-1.97178 -3.69683,-3.90143 -3.69683,-3.90143 0,0 0.41348,-3.90583 1.34646,-7.26521 0.93298,-3.35939 2.38843,-6.17092 2.38843,-6.17092 2e-5,0 2.51498,-1.44739 5.62377,-1.90313 0.9715,-0.14241 1.99817,-0.18995 2.95462,-0.18556 z m 32.96704,9.61559 c -1e-5,0 2.86805,1.25657 5.18128,3.10687 2.31322,1.85029 4.07271,4.29632 4.07271,4.29632 0,0 -0.16409,3.34961 -1.27035,6.83225 -1.10626,3.48265 -3.15444,7.09869 -3.15444,7.09869 0,0 -2.85889,1.04913 -5.87592,1.33219 -3.01704,0.28308 -6.19471,-0.19982 -6.19471,-0.19982 l -1.57484,-6.5896 -1.62243,-6.77516 c 0,0 2.15308,-2.59622 4.76261,-4.87203 2.60951,-2.2758 5.67609,-4.22971 5.67609,-4.22971 z"
       id="path3400"
       sodipodi:nodetypes="ccccsccccccccsccscscccccscscscccsccsccscccccscscsccscscscccsc"
       inkscape:connector-curvature="0" />
    <path
       sodipodi:nodetypes="cscscccscsc"
       id="path3514"
       d="m 298.12659,810.87286 c 0,0 -0.16116,3.26477 -1.23876,6.65723 -1.07761,3.39245 -3.07168,6.9126 -3.07168,6.9126 0,0 -2.78565,1.02377 -5.72455,1.29952 -2.93889,0.27574 -6.03103,-0.19655 -6.03103,-0.19655 l -1.53596,-6.41739 -1.57906,-6.59745 c 0,0 2.09681,-2.53227 4.63874,-4.74914 2.54194,-2.21686 5.52899,-4.11833 5.52899,-4.11833 0,0 2.79338,1.22592 5.04671,3.0283 2.25333,1.80237 3.9666,4.18121 3.9666,4.18121 z"
       style="fill:none;stroke:url(#linearGradient3242);stroke-width:0.741539;stroke-linecap:butt;stroke-linejoin:round;stroke-miterlimit:4;stroke-opacity:1;stroke-dashoffset:0;marker:none;visibility:visible;display:inline;overflow:visible;enable-background:accumulate"
       inkscape:connector-curvature="0" />
    <path
       sodipodi:nodetypes="cscscsccc"
       id="path3516"
       d="m 253.0236,816.86949 c 0,0 -3.09635,-1.9649 -5.32895,-3.88699 -2.23261,-1.92211 -3.60151,-3.80141 -3.60151,-3.80141 0,0 0.40145,-3.80572 1.31091,-7.08046 0.90947,-3.27476 2.32697,-6.01854 2.32697,-6.01854 0,0 2.451,-1.40909 5.48146,-1.85334 3.03046,-0.44425 6.64039,0.0763 6.64039,0.0763 l 3.08753,13.12566 -9.9168,9.43876 z"
       style="fill:none;stroke:url(#linearGradient3239);stroke-width:0.74207366;stroke-linecap:butt;stroke-linejoin:round;stroke-miterlimit:4;stroke-opacity:1;stroke-dashoffset:0;marker:none;visibility:visible;display:inline;overflow:visible;enable-background:accumulate"
       inkscape:connector-curvature="0" />
    <path
       sodipodi:nodetypes="csccscczc"
       id="path3518"
       d="m 281.8615,778.43067 c 0,0 2.96345,1.1413 5.07996,2.75166 2.11652,1.61035 3.38611,3.68976 3.38611,3.68976 l -5.38311,3.71965 c 0,0 -2.89755,-1.9875 -5.92602,-3.0575 -3.02846,-1.06999 -7.26441,-1.49166 -7.26441,-1.49166 l -1.41888,-5.60938 c 0,0 2.95289,-1.03058 5.59225,-1.11194 2.63937,-0.0813 5.9341,1.10941 5.9341,1.10941 z"
       style="fill:none;stroke:url(#linearGradient3250);stroke-width:0.76366079;stroke-linecap:butt;stroke-linejoin:miter;stroke-miterlimit:4;stroke-opacity:1;stroke-dashoffset:0;marker:none;visibility:visible;display:inline;overflow:visible;enable-background:accumulate"
       inkscape:connector-curvature="0" />
    <path
       id="path3479"
       d="m 259.85561,794.19797 c 0,0 5.50945,-7.32031 11.94204,-9.79438"
       style="fill:none;stroke:#666666;stroke-width:0.15225074px;stroke-linecap:butt;stroke-linejoin:miter;stroke-opacity:1"
       sodipodi:nodetypes="cc"
       inkscape:connector-curvature="0" />
    <path
       sodipodi:nodetypes="cs"
       style="fill:none;stroke:#ececec;stroke-width:0.45675221;stroke-linecap:butt;stroke-linejoin:miter;stroke-miterlimit:4;stroke-opacity:1;stroke-dasharray:none"
       d="m 285.8558,789.16537 c 0,0 4.10846,6.53557 3.57558,13.99585"
       id="path3506"
       inkscape:connector-curvature="0" />
    <path
       id="path3481"
       d="m 285.48986,789.24369 c 0,0 4.19844,6.75629 3.66556,14.21657"
       style="fill:none;stroke:#666666;stroke-width:0.15225074px;stroke-linecap:butt;stroke-linejoin:miter;stroke-opacity:1"
       sodipodi:nodetypes="cs"
       inkscape:connector-curvature="0" />
    <path
       id="path3483"
       d="m 291.18772,785.07757 c 0,0 9.10206,3.59311 13.09863,14.97385"
       style="fill:none;stroke:#666666;stroke-width:0.15225074px;stroke-linecap:butt;stroke-linejoin:miter;stroke-opacity:1"
       sodipodi:nodetypes="cs"
       inkscape:connector-curvature="0" />
    <path
       id="path3485"
       d="m 298.43768,810.75291 c 0,0 3.20402,-0.2489 6.00312,-4.98583"
       style="fill:none;stroke:#666666;stroke-width:0.15225074px;stroke-linecap:butt;stroke-linejoin:miter;stroke-opacity:1"
       sodipodi:nodetypes="cc"
       inkscape:connector-curvature="0" />
    <path
       id="path3487"
       d="m 296.15037,832.286 c 0,0 0.44469,-2.76014 -2.21087,-7.75762"
       style="fill:none;stroke:#666666;stroke-width:0.15225074px;stroke-linecap:butt;stroke-linejoin:miter;stroke-opacity:1"
       sodipodi:nodetypes="cc"
       inkscape:connector-curvature="0" />
    <path
       id="path3489"
       d="m 270.76622,835.57673 c 0,0 4.92532,-1.30534 11.16946,-9.91796"
       style="fill:none;stroke:#666666;stroke-width:0.15225074px;stroke-linecap:butt;stroke-linejoin:miter;stroke-opacity:1"
       sodipodi:nodetypes="cc"
       inkscape:connector-curvature="0" />
    <path
       id="path3491"
       d="m 252.97581,817.04618 c 0,0 -0.29606,7.67058 3.52578,13.69941"
       style="fill:none;stroke:#666666;stroke-width:0.15225074px;stroke-linecap:butt;stroke-linejoin:miter;stroke-opacity:1"
       sodipodi:nodetypes="cc"
       inkscape:connector-curvature="0" />
    <path
       id="path3493"
       d="m 251.76662,835.11547 c 0,0 -1.13114,0.014 -5.41175,-2.5666"
       style="fill:none;stroke:#666666;stroke-width:0.15225074px;stroke-linecap:butt;stroke-linejoin:miter;stroke-opacity:1"
       sodipodi:nodetypes="cc"
       inkscape:connector-curvature="0" />
    <path
       id="path3495"
       d="m 243.91912,809.26792 c 0,0 -3.06763,1.28857 -4.72,4.85851"
       style="fill:none;stroke:#666666;stroke-width:0.15225074px;stroke-linecap:butt;stroke-linejoin:miter;stroke-opacity:1"
       sodipodi:nodetypes="cc"
       inkscape:connector-curvature="0" />
    <path
       id="path3497"
       d="m 247.78095,787.97003 c 0,0 -1.101,4.24966 -0.14431,7.82007"
       style="fill:none;stroke:#666666;stroke-width:0.15225074px;stroke-linecap:butt;stroke-linejoin:miter;stroke-opacity:1"
       sodipodi:nodetypes="cc"
       inkscape:connector-curvature="0" />
    <path
       id="path3499"
       d="m 251.4686,782.54195 c 0,0 9.1433,-7.74881 18.45568,-4.30378"
       style="fill:none;stroke:#666666;stroke-width:0.15225074px;stroke-linecap:butt;stroke-linejoin:miter;stroke-opacity:1"
       sodipodi:nodetypes="cs"
       inkscape:connector-curvature="0" />
    <path
       sodipodi:nodetypes="cs"
       id="path3501"
       d="m 273.12334,841.70988 c 0,0 7.97585,2.04793 20.27787,-5.212"
       style="fill:none;stroke:#666666;stroke-width:0.15225074px;stroke-linecap:butt;stroke-linejoin:miter;stroke-opacity:1"
       inkscape:connector-curvature="0" />
    <path
       sodipodi:nodetypes="cc"
       style="fill:none;stroke:#f2f2f2;stroke-width:0.45675221;stroke-linecap:square;stroke-linejoin:miter;stroke-miterlimit:4;stroke-opacity:1;stroke-dasharray:none"
       d="m 259.88523,793.64854 c 0,0 4.5813,-6.30951 11.31839,-9.3355"
       id="path3504"
       inkscape:connector-curvature="0" />
    <path
       sodipodi:nodetypes="cc"
       style="fill:none;stroke:#ffffff;stroke-width:0.45675221;stroke-linecap:butt;stroke-linejoin:miter;stroke-miterlimit:4;stroke-opacity:1;stroke-dasharray:none"
       d="m 270.89144,835.84059 c 0,0 4.69273,-0.90531 10.93687,-9.51791"
       id="path3508"
       inkscape:connector-curvature="0" />
    <path
       sodipodi:nodetypes="cc"
       style="fill:none;stroke:#ffffff;stroke-width:0.45675221;stroke-linecap:butt;stroke-linejoin:miter;stroke-miterlimit:4;stroke-opacity:1;stroke-dasharray:none"
       d="m 252.66737,817.21662 c 0,0 -0.29606,7.67279 3.52578,13.70161"
       id="path3510"
       inkscape:connector-curvature="0" />
    <path
       style="fill:none;stroke:#999999;stroke-width:0.15225074px;stroke-linecap:butt;stroke-linejoin:miter;stroke-miterlimit:4;stroke-opacity:1;stroke-dasharray:none;stroke-dashoffset:0;marker:none;visibility:visible;display:inline;overflow:visible;enable-background:accumulate"
       d="m 263.2571,807.50502 c 0,0 4.01025,0.94201 15.42195,4.97917"
       id="path2453"
       sodipodi:nodetypes="cc"
       inkscape:connector-curvature="0" />
    <path
       sodipodi:nodetypes="cc"
       id="path3260"
       d="m 263.2571,807.31087 c 0,0 4.01025,0.942 15.42195,4.97916"
       style="fill:none;stroke:#ececec;stroke-width:0.15225074px;stroke-linecap:butt;stroke-linejoin:miter;stroke-miterlimit:4;stroke-opacity:1;stroke-dasharray:none;stroke-dashoffset:0;marker:none;visibility:visible;display:inline;overflow:visible;enable-background:accumulate"
       inkscape:connector-curvature="0" />
  </g>
</svg>
